<?xml version="1.0" encoding="utf-8" ?>
<svg xmlns="http://www.w3.org/2000/svg" xmlns:xlink="http://www.w3.org/1999/xlink" width="452" height="452">
	<path fill="#354E65" transform="scale(0.882812 0.882812)" d="M136.971 71.7503C142.657 71.2996 148.51 71.7346 154.215 71.7405L378.028 71.7412C400.153 71.7495 407.211 75.4366 407.219 98.7107L407.22 408.326C407.246 432.938 399.692 434.788 379.011 434.769L272.125 434.751L150.168 434.766C124.7 434.784 121.204 431.647 121.223 407.886L121.246 388.883C117.628 388.905 108.023 389.853 105.371 387.424C103.625 385.825 103.564 382.546 105.302 380.92C107.858 378.531 117.477 379.468 121.246 379.497L121.246 344.727C116.399 344.724 110.655 345.179 105.947 344.727C98.0086 333.353 114.866 335.205 121.246 335.255L121.246 301.737C117.507 301.766 108.375 302.378 105.63 300.021C103.91 298.545 103.356 295.297 104.985 293.557C107.439 290.937 117.581 291.977 121.246 292.003L121.246 257.863C117.605 257.754 108.461 258.883 105.691 256.487C103.979 255.006 103.605 251.754 105.208 250.062C107.551 247.59 117.702 248.468 121.246 248.479L121.246 214.497C116.478 214.512 111.708 214.56 106.941 214.497C104.519 212.867 102.891 209.037 105.255 206.648C107.829 204.046 117.507 205.11 121.246 205.151L121.246 170.499C117.377 170.271 108.599 171.612 105.634 169.109C103.849 167.602 103.72 164.436 105.345 162.769C107.871 160.176 117.576 161.138 121.246 161.166L121.246 127.983C116.622 127.543 111.611 127.958 106.941 127.983C96.006 117.209 115.563 118.489 121.246 118.507L121.226 98.5377C121.21 85.0924 121.722 75.3936 136.971 71.7503ZM130.153 118.507L140.366 118.466C145.121 118.41 151.151 117.455 151.227 124.068C151.297 130.131 133.531 127.996 130.153 127.983L130.153 161.166L140.241 161.106C143.118 161.062 147.429 160.31 149.77 162.473C152.869 165.335 150.541 169.605 146.983 170.363C143.595 171.085 134.165 170.465 130.153 170.499L130.153 205.151C136.624 205.123 150.009 202.225 150.726 209.613C150.237 217.922 137.441 214.167 130.153 214.497C130.154 225.808 130.409 237.175 130.153 248.479C134.378 248.406 147.1 247.234 149.851 250.042C152.799 253.052 150.219 257.208 146.635 257.771C142.659 258.396 134.519 257.887 130.153 257.863L130.139 280.534C130.133 284.329 129.868 288.224 130.153 292.003C135.555 292.011 143.18 291.297 148.31 292.003C150.506 294.055 150.97 295.737 150.726 298.595C147.465 304.151 136.217 301.696 130.153 301.737C130.152 312.9 129.931 324.097 130.153 335.255C138.355 335.217 151.107 331.714 150.726 341.623C147.339 347.178 136.317 344.589 130.153 344.727L130.153 379.497C134.934 379.268 150.887 377.555 151.053 383.457C151.288 391.81 136.256 388.607 130.153 388.883L130.133 409.24C130.09 426.861 132.133 426.019 149.565 425.988L242.375 425.966L374.802 425.978C398.443 425.995 398.435 428.162 398.331 401.836L398.343 113.371C398.343 105.963 398.496 98.5202 398.34 91.1166C398.103 79.8976 389.335 80.7727 380.681 80.7758L139.172 80.7819C128.685 81.861 130.136 91.4835 130.137 99.2179L130.153 118.507Z"/>
	<path fill="#354E65" transform="scale(0.882812 0.882812)" d="M255.588 137.124C260.983 136.817 266.717 136.979 272.125 137.124C273.146 142.371 285.063 191.088 286.096 191.86C287.68 188.864 288.117 183.862 288.937 180.466L293.838 159.613C295.548 152.059 297.175 144.518 299.503 137.124C304.729 137.294 309.997 137.14 315.228 137.124C320.15 156.161 325.033 175.265 329.312 194.458C331.149 190.111 332.052 183.81 333.171 179.07L339.832 151.001C340.933 146.384 341.857 141.679 343.188 137.124C348.185 137.443 353.272 136.919 358.291 137.124C357.069 143.212 355.685 149.489 353.933 155.44C349.334 175.432 343.704 196.859 338.125 216.513C332.799 216.629 327.457 216.529 322.129 216.513C317.098 197.408 312.193 178.228 306.669 159.26C302.58 178.436 297.52 197.465 292.856 216.513C287.957 216.96 282.639 216.53 277.694 216.513C270.707 190.176 263.155 163.261 255.588 137.124Z"/>
	<path fill="#354E65" transform="scale(0.882812 0.882812)" d="M214.935 135.155L215.218 135.154C232.875 135.136 251.271 141.821 251.141 162.448L236.51 162.448C234.912 157.86 233.609 153.18 229.456 150.2C222.325 145.083 211.592 146.643 206.55 153.906C199.671 163.814 198.615 194.254 210.589 202.148C219.99 208.346 229.68 203.053 235.15 194.458C235.348 192.543 235.936 190.597 236.51 188.766C240.81 189.03 248.023 188.092 251.8 188.89C253.337 192.482 249.335 200.689 247.355 203.722C238.855 216.745 219.268 220.62 205.344 214.834C177.659 203.331 174.537 142.438 214.935 135.155Z"/>
	<path fill="#3480B7" transform="scale(0.882812 0.882812)" d="M184.254 366.147L361.986 366.147C362.042 368.51 361.992 370.882 361.986 373.246C360.206 373.466 358.199 373.285 356.39 373.276L225.16 373.244C211.532 373.245 197.879 373.432 184.254 373.246C184.118 370.866 184.171 368.526 184.254 366.147Z"/>
	<path fill="#3480B7" transform="scale(0.882812 0.882812)" d="M235.15 275.759L361.986 275.759L361.986 282.74L311.375 282.74L226.444 282.738C212.396 282.738 198.296 283.007 184.254 282.74L184.254 275.759L235.15 275.759Z"/>
	<path fill="#3480B7" transform="scale(0.882812 0.882812)" d="M184.254 245.756C203.984 245.994 223.746 245.757 243.479 245.757L361.986 245.756C361.865 248.067 362.01 250.38 361.986 252.693C359.942 252.879 357.761 252.727 355.704 252.72L184.254 252.693L184.254 245.756Z"/>
	<path fill="#3480B7" transform="scale(0.882812 0.882812)" d="M184.254 336C190.774 336.217 197.374 336.004 203.902 336.003L361.986 336C361.968 337.488 362.497 341.776 361.986 342.886L184.254 342.886L184.254 336Z"/>
	<path fill="#3480B7" transform="scale(0.882812 0.882812)" d="M185.249 305.998L361.986 305.998C362.057 308.274 363.405 312.59 360.312 312.826L184.254 312.826C184.269 311.249 183.644 307.447 184.359 306.159L185.249 305.998Z"/>
</svg>
